<!--?xml version="1.0" encoding="utf-8"?-->
<!-- Generator: Adobe Illustrator 25.2.3, SVG Export Plug-In . SVG Version: 6.00 Build 0)  -->
<svg version="1.1" id="_x31_2" xmlns="http://www.w3.org/2000/svg" xmlns:xlink="http://www.w3.org/1999/xlink" x="0px" y="0px" viewBox="0 0 417 720" style="enable-background:new 0 0 417 720;" xml:space="preserve">
<style type="text/css">
	.st0{fill:#A2A2A2;}
	.st1{fill:#DFDFDF;}
	.st2{fill:#C3C7DD;}
	.st3{fill:#D8D9DD;}
	.st4{fill:#D70060;}
	.st5{fill:#012C3D;}
.st6{fill:#000000;}</style>
<g>
	<g>
		<g>
			<path class="st0" d="M2.13,668.531c2.405,6.564,6.77,12.339,12.688,16.392c8.666,5.935,19.122,14.334,25.497,23.782
				C45.065,715.741,52.955,720,61.445,720H355.56c8.49,0,16.381-4.259,21.129-11.296c6.376-9.448,16.832-17.846,25.498-23.782
				c5.918-4.053,10.282-9.827,12.688-16.392l-206.372-20.323L2.13,668.531z" style="opacity: 1;"></path>
			<path class="st1" d="M417,117.329V656.57c0,4.125-0.732,8.17-2.134,11.971H2.134C0.752,664.74,0,660.695,0,656.57V117.329
				c0-10.263,3.049-20.262,8.76-28.778l18.984-28.31c3.679-5.467,5.651-11.93,5.651-18.535v-13.8h350.21v13.8
				c0,6.605,1.972,13.068,5.651,18.535l18.984,28.31C413.951,97.066,417,107.066,417,117.329z" style="opacity: 1;"></path>
			<g>
				<path class="st6" d="M173.199,622.874v18.879c0,3.574-2.881,6.454-6.455,6.454c-0.521,0-1.042-0.103-1.527-0.242
					c-0.104,0-0.347-0.036-0.347-0.453c0-0.417,0-2.602,0-2.775c0-0.347,0.313-0.383,0.486-0.347
					c0.416,0.139,0.833,0.139,1.388,0.139c1.179,0,2.082-0.937,2.082-2.118v-19.537c0-0.173,0.174-0.276,0.346-0.276h3.749
					C173.094,622.599,173.199,622.702,173.199,622.874z" style="opacity: 1;"></path>
				<path class="st6" d="M179.135,648.207h-3.782c-0.174,0-0.347-0.103-0.347-0.278v-25.055c0-0.173,0.174-0.276,0.347-0.276h3.782
					c0.174,0,0.278,0.103,0.278,0.276v25.055C179.412,648.104,179.308,648.207,179.135,648.207z" style="opacity: 1;"></path>
				<path class="st6" d="M191.942,622.874v3.193c0,0.173-0.104,0.278-0.278,0.278h-2.812v21.584c0,0.175-0.173,0.278-0.346,0.278h-3.749
					c-0.174,0-0.313-0.103-0.313-0.278v-21.584h-2.811c-0.174,0-0.347-0.105-0.347-0.278v-3.193c0-0.173,0.174-0.276,0.347-0.276
					h10.03C191.838,622.599,191.942,622.702,191.942,622.874z" style="opacity: 1;"></path>
				<path class="st6" d="M202.321,644.807c0-0.175-0.174-0.347-0.278-0.347h-3.123c-0.104,0-0.278,0.173-0.278,0.347l-0.347,3.122
					c0,0.175-0.174,0.278-0.347,0.278h-3.782c-0.174,0-0.278-0.103-0.278-0.278l2.291-24.811c0.069-0.175,0.174-0.278,0.347-0.278
					h8.329c0.174,0,0.347,0.103,0.347,0.278l1.943,24.811c0.035,0.175-0.139,0.278-0.313,0.278l-3.852,0.103
					c-0.174,0-0.347-0.103-0.347-0.276L202.321,644.807z M201.696,640.711c0.174,0,0.278-0.139,0.278-0.312l-1.354-13.706
					c0-0.175,0-0.175-0.035,0l-1.526,13.706c0,0.173,0.103,0.312,0.277,0.312H201.696z" style="opacity: 1;"></path>
				<path class="st6" d="M221.724,622.599c0.174,0,0.278,0.103,0.278,0.276v25.055c0,0.175-0.104,0.278-0.278,0.278h-3.818
					c-0.174,0-0.346-0.103-0.416-0.278l-3.818-11.694c-0.069-0.105-0.069-0.105-0.069,0.069v11.624c0,0.175-0.174,0.278-0.347,0.278
					h-3.748c-0.174,0-0.278-0.103-0.278-0.278v-25.055c0-0.173,0.104-0.276,0.278-0.276h3.748c0.174,0,0.347,0.103,0.417,0.276
					l3.818,11.626c0.069,0.173,0.104,0.173,0.104,0v-11.626c0-0.173,0.138-0.276,0.312-0.276H221.724z" style="opacity: 1;"></path>
				<path class="st6" d="M236.963,629.053v12.7c0,3.574-2.916,6.454-6.491,6.454h-6.108c-0.174,0-0.347-0.103-0.347-0.278v-25.055
					c0-0.173,0.174-0.276,0.347-0.276h6.108C234.047,622.599,236.963,625.478,236.963,629.053z M232.59,628.392
					c0-1.179-0.937-2.116-2.117-2.116h-2.047v18.253h2.047c1.18,0,2.117-0.937,2.117-2.118
					C232.59,642.412,232.59,642.412,232.59,628.392z" style="opacity: 1;"></path>
				<path class="st6" d="M247.309,644.807c0-0.175-0.174-0.347-0.278-0.347h-3.123c-0.104,0-0.278,0.173-0.278,0.347l-0.347,3.122
					c0,0.175-0.174,0.278-0.346,0.278h-3.783c-0.174,0-0.278-0.103-0.278-0.278l2.291-24.811c0.069-0.175,0.174-0.278,0.347-0.278
					h8.329c0.174,0,0.347,0.103,0.347,0.278l1.943,24.811c0.035,0.175-0.139,0.278-0.312,0.278l-3.853,0.103
					c-0.174,0-0.347-0.103-0.347-0.276L247.309,644.807z M246.683,640.711c0.174,0,0.278-0.139,0.278-0.312l-1.354-13.706
					c0-0.175,0-0.175-0.035,0l-1.527,13.706c0,0.173,0.104,0.312,0.278,0.312H246.683z" style="opacity: 1;"></path>
			</g>
		</g>
		<rect x="33.395" y="27.906" class="st2" width="350.21" height="12.763" style="opacity: 1;"></rect>
		<path class="st3" d="M383.187,35.704H33.819c-3.169,0-5.739-2.569-5.739-5.739V5.739C28.08,2.569,30.65,0,33.819,0l349.368,0
			c3.169,0,5.739,2.569,5.739,5.739v24.227C388.925,33.135,386.356,35.704,383.187,35.704z" style="opacity: 1;"></path>
	</g>
	<g>
		<path class="st4" d="M180.896,215.653v18.368c0,8.601-7.015,15.532-15.617,15.532H150.58c-0.417,0-0.835-0.25-0.835-0.668v-48.098
			c0-0.417,0.417-0.668,0.835-0.668h14.699C173.881,200.121,180.896,207.052,180.896,215.653z M170.373,214.066
			c0-2.839-2.255-5.094-5.095-5.094h-4.927v31.731h4.927c2.839,0,5.095-2.255,5.095-5.094
			C170.373,235.609,170.373,247.803,170.373,214.066z" style="opacity: 1;"></path>
		<path class="st4" d="M215.844,231.017l7.516,17.869c0.083,0.417-0.167,0.668-0.584,0.668h-9.02c-0.417,0-0.835-0.25-1.002-0.668
			l-7.349-17.2h-4.343v17.2c0,0.417-0.335,0.668-0.752,0.668h-9.187c-0.25,0-0.668-0.25-0.668-0.668v-48.098
			c0-0.417,0.417-0.668,0.668-0.668h20.879c8.184,0,11.609,6.513,11.609,15.532v0.501
			C223.611,223.503,221.189,229.181,215.844,231.017z M201.062,222.667h4.343c4.343,0,7.6-1.92,7.6-6.513v-0.501
			c0-4.51-3.257-6.681-7.6-6.681v0.167h-4.343V222.667z" style="opacity: 1;"></path>
		<path class="st4" d="M266.701,200.121c0.417,0,0.751,0.25,0.417,0.668l-13.696,29.477c-0.083,0.334-0.251,0.751-0.418,0.751
			c0,0.168,0,0.419,0,0.836v16.699c0,0.417-0.25,0.835-0.668,0.835h-9.187c-0.417,0-0.668-0.417-0.668-0.835v-16.699
			c0-0.417,0-0.668,0-0.836c-0.167,0-0.334-0.417-0.417-0.751l-13.696-29.477c-0.334-0.417,0-0.668,0.417-0.668h9.27
			c0.417,0,0.835,0.25,1.002,0.668l3.09,6.514c0.167,0.417,0.417,1.002,0.585,1.419l4.676,10.021c0.25,0.25,0.585,0.25,0.668,0
			l4.676-10.021c0.167-0.417,0.417-1.002,0.585-1.419l3.09-6.514c0.167-0.417,0.668-0.668,1.002-0.668H266.701z" style="opacity: 1;"></path>
	</g>
	<g>
		<polygon class="st5" points="371.312,534.802 367.979,531.189 334.573,590.576 204.723,590.576 82.427,590.576 49.917,532.781 
			49.917,180.076 82.73,105.87 204.723,105.87 334.27,105.87 367.083,180.077 367.083,534.802 371.312,534.802 367.979,531.189 
			371.312,534.802 375.54,534.802 375.54,176.761 339.002,94.129 204.723,94.129 77.998,94.129 41.46,176.761 41.46,536.822 
			78.3,602.317 204.723,602.317 338.699,602.317 375.54,536.822 375.54,534.802 		" style="opacity: 1;"></polygon>
		<polygon class="st5" points="97.284,572.965 98.236,571.933 73.976,528.803 73.976,183.24 99.657,125.159 317.342,125.159 
			343.024,183.24 343.024,528.802 319.127,571.288 97.284,571.288 97.284,572.965 98.236,571.933 97.284,572.965 97.284,574.642 
			320.306,574.642 345.441,529.957 345.441,182.292 318.695,121.805 98.305,121.805 71.559,182.292 71.559,529.956 96.694,574.642 
			97.284,574.642 		" style="opacity: 1;"></polygon>
	</g>
	<g>
		<path class="st5" d="M124.007,372.86l21.31-22.284c1.362-1.424,2.122-3.319,2.122-5.29V269.09c0-1.963-2.425-2.888-3.719-1.412
			c-10.521,11.998-40.236,46.075-47.986,57.015c-8.227,11.613-15.192,33.95-7.737,46.179c1.711,2.806,5.766,2.914,7.719,0.271
			l21.005-28.428c1.34-1.814,0.045-4.38-2.21-4.38h-7.076c-6.315,0-9.844-7.285-5.93-12.24l20.68-26.179l-0.793,71.878
			C121.377,373.171,123.056,373.855,124.007,372.86z" style="opacity: 1;"></path>
		<path class="st5" d="M149.892,361.376l14.326-14.241c1.029-0.965,2.714-0.236,2.714,1.175v16.371c0,4.749,5.615,7.264,9.159,4.103
			l4.359-3.887c2.375-2.118,2.505-5.788,0.286-8.068l-25.398-26.101c-4.376-4.497-4.301-11.683,0.174-16.083
			c5.919-5.819,13.292-13.017,15.527-14.978c3.409-2.992,17.566-5.408,25.485,2.387c1.791,1.763,1.731,4.682-0.057,6.448
			l-14.469,14.287c-0.75,0.741-2.022,0.209-2.022-0.845v-16.875c0-3.621-4.366-5.449-6.946-2.908l-4.365,4.3
			c-2.685,2.644-2.701,6.969-0.036,9.634l26.293,26.29c4.122,4.122,4.041,10.83-0.18,14.851l-10.411,9.917
			c-5.905,4.875-11.171,7.814-19.498,7.202c-8.327-0.612-14.369-2.556-16.042-6.857
			C147.933,365.294,148.418,362.841,149.892,361.376z" style="opacity: 1;"></path>
		<path class="st5" d="M249.51,311.572l-11.19-11.611c-3.364-3.49-8.81-3.904-12.662-0.961l-17.544,13.4
			c-2.183,1.667-3.463,4.256-3.463,7.002v37.194c0,2.952,1.469,5.71,3.917,7.358l13.72,9.233c4.483,3.017,10.476,2.437,14.297-1.384
			l12.796-12.795c2.225-2.225,3.475-5.242,3.475-8.388v-30.752C252.857,316.774,251.657,313.801,249.51,311.572z M232.417,353.838
			c0,2.099-0.705,4.136-2.001,5.786l-2.213,2.816c-1.97,2.506-5.544,3.058-8.178,1.263l-3.408-2.323
			c-2.179-1.486-3.483-3.952-3.483-6.589v-38.44c0-2.029,0.98-3.932,2.631-5.111l0.578-0.413c2.774-1.981,6.599-1.534,8.842,1.034
			l3.809,4.362c2.207,2.528,3.423,5.77,3.423,9.125V353.838z" style="opacity: 1;"></path>
		<path class="st5" d="M263.546,372.81v-86.223c0-0.787,0.307-1.542,0.855-2.106l16.452-16.913c1.282-1.318,3.516-0.41,3.516,1.428
			v83.916c0,2.001-0.788,3.921-2.193,5.346l-15.584,15.802C265.475,375.192,263.546,374.401,263.546,372.81z" style="opacity: 1;"></path>
		<path class="st5" d="M276.157,330.521c0.7-0.699,21.42-23.457,29.885-32.756c1.257-1.381,3.55-0.486,3.55,1.382v53.712
			c0,2.047-0.743,4.024-2.091,5.565l-13.064,14.928c-1.153,1.317-3.322,0.502-3.322-1.248V320.55l-17.157,18.475L276.157,330.521z" style="opacity: 1;"></path>
		<g>
			<path class="st5" d="M332.174,286.589v-19.138c0-1.146-1.449-1.646-2.156-0.743l-12.694,16.219
				c-0.64,0.817-0.987,1.825-0.987,2.863v19.385c0,0.913,1.142,1.326,1.727,0.624l12.677-15.243
				C331.667,289.441,332.174,288.038,332.174,286.589z" style="opacity: 1;"></path>
			<path class="st5" d="M316.337,316.231v55.588c0,2.472,3.235,3.403,4.55,1.31l10.238-16.303c0.686-1.092,1.049-2.355,1.049-3.644
				v-54.064c0-1.447-1.817-2.094-2.731-0.972l-11.835,14.517C316.786,313.67,316.337,314.93,316.337,316.231z" style="opacity: 1;"></path>
		</g>
	</g>
	<polygon class="st5" points="216.555,445.469 216.555,436.22 240.985,436.22 240.985,427.445 216.555,427.445 216.555,419.144 
		246.914,419.144 246.914,411.081 216.555,411.081 216.555,402.069 203.272,402.069 203.272,411.081 187.202,411.081 
		189.156,404.915 177.162,404.915 167.239,436.22 179.234,436.22 184.646,419.144 203.272,419.144 203.272,427.445 185.958,427.445 
		185.958,436.22 203.272,436.22 203.272,445.469 168.406,445.469 168.406,455.667 249.761,455.667 249.761,445.469 	" style="opacity: 1;"></polygon>
	<g>
		<path class="st6" d="M136.845,168.55v2.368c0,0.129-0.077,0.206-0.205,0.206h-2.085v16.009c0,0.129-0.129,0.206-0.258,0.206h-2.78
			c-0.129,0-0.231-0.077-0.231-0.206v-16.009H129.2c-0.129,0-0.258-0.077-0.258-0.206v-2.368c0-0.129,0.129-0.206,0.258-0.206h7.439
			C136.768,168.343,136.845,168.421,136.845,168.55z" style="opacity: 1;"></path>
		<path class="st6" d="M147.506,168.343c0.129,0,0.231,0.077,0.231,0.206v18.583c0,0.129-0.102,0.206-0.231,0.206h-2.78
			c-0.129,0-0.258-0.077-0.258-0.206v-9.138c0-0.127-0.077-0.23-0.231-0.23h-2.523c-0.129,0-0.205,0.103-0.205,0.23v9.138
			c0,0.129-0.077,0.206-0.206,0.206h-2.831c-0.129,0-0.232-0.077-0.232-0.206V168.55c0-0.129,0.103-0.206,0.232-0.206h2.831
			c0.129,0,0.206,0.077,0.206,0.206v6.176c0,0.129,0.076,0.258,0.205,0.258h2.523c0.154,0,0.231-0.129,0.231-0.258v-6.176
			c0-0.129,0.129-0.206,0.258-0.206H147.506z" style="opacity: 1;"></path>
		<path class="st6" d="M152.53,171.124c-0.129,0-0.205,0.077-0.205,0.204v3.32c0,0.129,0.076,0.206,0.205,0.206h4.402
			c0.129,0,0.232,0.129,0.232,0.258v2.316c0,0.129-0.103,0.206-0.232,0.206h-4.402c-0.129,0-0.205,0.129-0.205,0.282v6.436
			c0,0.077,0.076,0.204,0.205,0.204h4.222c0.102,0,0.231,0.077,0.231,0.206v2.368c0,0.129-0.129,0.206-0.231,0.206h-7.465
			c-0.129,0-0.232-0.077-0.232-0.206V168.55c0-0.129,0.103-0.206,0.232-0.206h7.645c0.129,0,0.232,0.077,0.232,0.206v2.368
			c0,0.129-0.103,0.206-0.232,0.206H152.53z" style="opacity: 1;"></path>
		<path class="st6" d="M175.396,168.55v14.002c0,2.652-2.136,4.787-4.788,4.787c-0.386,0-0.772-0.077-1.132-0.181
			c-0.077,0-0.258-0.026-0.258-0.333c0-0.31,0-1.931,0-2.06c0-0.258,0.232-0.284,0.361-0.258c0.309,0.103,0.617,0.103,1.029,0.103
			c0.875,0,1.544-0.695,1.544-1.57v-14.49c0-0.129,0.129-0.206,0.258-0.206h2.78C175.32,168.343,175.396,168.421,175.396,168.55z" style="opacity: 1;"></path>
		<path class="st6" d="M183.044,184.816c0-0.129-0.129-0.258-0.205-0.258h-2.317c-0.077,0-0.205,0.129-0.205,0.258l-0.258,2.316
			c0,0.129-0.128,0.206-0.257,0.206h-2.806c-0.129,0-0.206-0.077-0.206-0.206l1.699-18.402c0.052-0.129,0.129-0.206,0.258-0.206
			h6.178c0.128,0,0.257,0.077,0.257,0.206l1.441,18.402c0.026,0.129-0.102,0.206-0.231,0.206l-2.857,0.077
			c-0.129,0-0.257-0.077-0.257-0.206L183.044,184.816z M182.581,181.78c0.129,0,0.206-0.103,0.206-0.232l-1.004-10.168
			c0-0.127,0-0.127-0.026,0l-1.132,10.168c0,0.129,0.077,0.232,0.205,0.232H182.581z" style="opacity: 1;"></path>
		<path class="st6" d="M198.339,173.13v0.155c0,2.755-1.003,4.787-3.578,4.787h-3.114c-0.129,0-0.232,0.103-0.232,0.232v8.828
			c0,0.129-0.128,0.206-0.257,0.206h-2.78c-0.129,0-0.206-0.077-0.206-0.206V168.55c0-0.129,0.077-0.206,0.206-0.206h6.383
			C197.336,168.343,198.339,170.352,198.339,173.13z M195.07,173.13c0-1.389-0.952-2.058-2.342-2.058v0.052h-1.081
			c-0.129,0-0.232,0.077-0.232,0.204v3.759c0,0.129,0.103,0.206,0.232,0.206h1.081c1.39,0,2.342-0.593,2.342-2.009V173.13z" style="opacity: 1;"></path>
		<path class="st6" d="M206.092,184.816c0-0.129-0.129-0.258-0.205-0.258h-2.317c-0.077,0-0.205,0.129-0.205,0.258l-0.258,2.316
			c0,0.129-0.128,0.206-0.257,0.206h-2.806c-0.129,0-0.206-0.077-0.206-0.206l1.699-18.402c0.052-0.129,0.129-0.206,0.258-0.206
			h6.178c0.128,0,0.257,0.077,0.257,0.206l1.441,18.402c0.026,0.129-0.102,0.206-0.231,0.206l-2.857,0.077
			c-0.129,0-0.257-0.077-0.257-0.206L206.092,184.816z M205.629,181.78c0.129,0,0.206-0.103,0.206-0.232l-1.004-10.168
			c0-0.127,0-0.127-0.026,0l-1.132,10.168c0,0.129,0.077,0.232,0.206,0.232H205.629z" style="opacity: 1;"></path>
		<path class="st6" d="M220.487,168.343c0.128,0,0.205,0.077,0.205,0.206v18.583c0,0.129-0.077,0.206-0.205,0.206h-2.831
			c-0.129,0-0.258-0.077-0.31-0.206l-2.831-8.673c-0.052-0.077-0.052-0.077-0.052,0.052v8.622c0,0.129-0.128,0.206-0.257,0.206
			h-2.78c-0.129,0-0.206-0.077-0.206-0.206V168.55c0-0.129,0.077-0.206,0.206-0.206h2.78c0.129,0,0.257,0.077,0.309,0.206
			l2.831,8.622c0.052,0.129,0.077,0.129,0.077,0v-8.622c0-0.129,0.103-0.206,0.232-0.206H220.487z" style="opacity: 1;"></path>
		<path class="st6" d="M243.122,174.083c0,1.338-0.258,2.523-0.85,3.346c0.592,0.824,0.85,2.034,0.85,3.424v1.699
			c0,2.779-1.004,4.787-3.553,4.787h-6.409c-0.129,0-0.258-0.077-0.258-0.206V168.55c0-0.129,0.129-0.206,0.258-0.206h6.409
			c2.549,0,3.553,1.905,3.553,4.557V174.083z M239.878,172.9c0-1.262-0.874-1.828-2.136-1.854c-0.103,0-0.181-0.052-0.232-0.052
			h-1.081c-0.129,0-0.257,0.129-0.257,0.206v4.581c0,0.129,0.128,0.206,0.257,0.206h1.081c0.052,0,0.129,0,0.232,0
			c1.261-0.077,2.136-0.643,2.136-1.905V172.9z M239.878,180.853c0-1.288-0.874-1.905-2.136-1.957c-0.103,0-0.181-0.026-0.232-0.026
			h-1.081c-0.129,0-0.257,0.129-0.257,0.258v5.226c0,0.127,0.128,0.204,0.257,0.204h1.081v0.052c0.052,0,0.129-0.052,0.232-0.052
			c1.261-0.077,2.136-0.695,2.136-2.007V180.853z" style="opacity: 1;"></path>
		<path class="st6" d="M252.289,177.868l2.317,9.265c0.026,0.129-0.052,0.206-0.181,0.206h-2.78c-0.129,0-0.258-0.077-0.309-0.206l-2.266-9.06
			h-1.339v9.06c0,0.129-0.102,0.206-0.231,0.206h-2.831c-0.077,0-0.206-0.077-0.206-0.206V168.55c0-0.129,0.129-0.206,0.206-0.206
			h6.435c2.523,0,3.578,2.009,3.578,4.787v0.155C254.683,175.55,253.937,177.3,252.289,177.868z M247.733,175.294h1.339
			c1.339,0,2.342-0.593,2.342-2.009v-0.155c0-1.389-1.003-2.058-2.342-2.058v0.052h-1.339V175.294z" style="opacity: 1;"></path>
		<path class="st6" d="M262.359,184.816c0-0.129-0.129-0.258-0.205-0.258h-2.317c-0.077,0-0.205,0.129-0.205,0.258l-0.258,2.316
			c0,0.129-0.128,0.206-0.257,0.206h-2.806c-0.129,0-0.206-0.077-0.206-0.206l1.699-18.402c0.052-0.129,0.129-0.206,0.258-0.206
			h6.178c0.128,0,0.257,0.077,0.257,0.206l1.441,18.402c0.026,0.129-0.102,0.206-0.231,0.206l-2.857,0.077
			c-0.129,0-0.257-0.077-0.257-0.206L262.359,184.816z M261.895,181.78c0.129,0,0.206-0.103,0.206-0.232l-1.004-10.168
			c0-0.127,0-0.127-0.026,0l-1.132,10.168c0,0.129,0.077,0.232,0.206,0.232H261.895z" style="opacity: 1;"></path>
		<path class="st6" d="M276.754,168.343c0.128,0,0.205,0.077,0.205,0.206v18.583c0,0.129-0.077,0.206-0.205,0.206h-2.832
			c-0.129,0-0.258-0.077-0.31-0.206l-2.832-8.673c-0.052-0.077-0.052-0.077-0.052,0.052v8.622c0,0.129-0.128,0.206-0.257,0.206
			h-2.78c-0.129,0-0.206-0.077-0.206-0.206V168.55c0-0.129,0.077-0.206,0.206-0.206h2.78c0.129,0,0.257,0.077,0.309,0.206
			l2.832,8.622c0.052,0.129,0.077,0.129,0.077,0v-8.622c0-0.129,0.103-0.206,0.232-0.206H276.754z" style="opacity: 1;"></path>
		<path class="st6" d="M288.058,173.13v9.421c0,2.652-2.163,4.787-4.813,4.787h-4.531c-0.129,0-0.258-0.077-0.258-0.206V168.55
			c0-0.129,0.129-0.206,0.258-0.206h4.531C285.895,168.343,288.058,170.479,288.058,173.13z M284.814,172.642
			c0-0.875-0.695-1.57-1.57-1.57h-1.519v13.538h1.519c0.875,0,1.57-0.695,1.57-1.57C284.814,183.04,284.814,183.04,284.814,172.642z
			" style="opacity: 1;"></path>
	</g>
	<g>
		<path class="st6" d="M151.171,501.284v12.724c0,3.58-2.92,6.466-6.501,6.466h-6.12c-0.174,0-0.347-0.105-0.347-0.278v-25.099
			c0-0.175,0.174-0.28,0.347-0.28h6.12C148.252,494.818,151.171,497.703,151.171,501.284z M146.792,500.625
			c0-1.183-0.939-2.122-2.121-2.122h-2.051v18.285h2.051c1.182,0,2.121-0.939,2.121-2.12
			C146.792,514.669,146.792,514.669,146.792,500.625z" style="opacity: 1;"></path>
		<path class="st6" d="M163.552,507.68l3.129,12.516c0.035,0.173-0.069,0.278-0.243,0.278h-3.754c-0.175,0-0.348-0.105-0.418-0.278l-3.06-12.238
			h-1.807v12.238c0,0.173-0.139,0.278-0.313,0.278h-3.825c-0.104,0-0.278-0.105-0.278-0.278v-25.099c0-0.175,0.174-0.28,0.278-0.28
			h8.692c3.407,0,4.832,2.713,4.832,6.466v0.208C166.786,504.553,165.778,506.916,163.552,507.68z M157.399,504.205h1.807
			c1.808,0,3.164-0.8,3.164-2.713v-0.208c0-1.876-1.356-2.781-3.164-2.781v0.069h-1.807V504.205z" style="opacity: 1;"></path>
		<path class="st6" d="M177.15,517.066c0-0.173-0.174-0.347-0.278-0.347h-3.129c-0.104,0-0.278,0.175-0.278,0.347l-0.347,3.13
			c0,0.173-0.174,0.278-0.348,0.278h-3.789c-0.174,0-0.278-0.105-0.278-0.278l2.295-24.856c0.069-0.173,0.174-0.278,0.347-0.278
			h8.345c0.174,0,0.347,0.105,0.347,0.278l1.947,24.856c0.035,0.173-0.139,0.278-0.314,0.278l-3.859,0.105
			c-0.174,0-0.347-0.105-0.347-0.28L177.15,517.066z M176.525,512.966c0.174,0,0.278-0.139,0.278-0.314l-1.356-13.732
			c0-0.173,0-0.173-0.035,0l-1.529,13.732c0,0.175,0.104,0.314,0.278,0.314H176.525z" style="opacity: 1;"></path>
		<path class="st6" d="M188.592,498.573c-0.174,0-0.278,0.105-0.278,0.278v4.485c0,0.173,0.104,0.278,0.278,0.278h5.945
			c0.174,0,0.314,0.173,0.314,0.347v3.128c0,0.175-0.14,0.28-0.314,0.28h-5.945c-0.174,0-0.278,0.173-0.278,0.381v12.446
			c0,0.173-0.174,0.278-0.348,0.278h-3.754c-0.174,0-0.313-0.105-0.313-0.278v-25.099c0-0.175,0.139-0.28,0.313-0.28h10.326
			c0.174,0,0.314,0.105,0.314,0.28v3.197c0,0.175-0.14,0.278-0.314,0.278H188.592z" style="opacity: 1;"></path>
		<path class="st6" d="M207.334,495.097v3.197c0,0.175-0.104,0.278-0.278,0.278h-2.816v21.623c0,0.173-0.175,0.278-0.348,0.278h-3.754
			c-0.174,0-0.313-0.105-0.313-0.278v-21.623h-2.817c-0.174,0-0.347-0.103-0.347-0.278v-3.197c0-0.175,0.174-0.28,0.347-0.28h10.048
			C207.23,494.818,207.334,494.923,207.334,495.097z" style="opacity: 1;"></path>
		<path class="st6" d="M237.588,502.57c0,1.808-0.347,3.408-1.147,4.519c0.8,1.113,1.147,2.747,1.147,4.624v2.294
			c0,3.755-1.356,6.466-4.798,6.466h-8.657c-0.174,0-0.347-0.105-0.347-0.278v-25.099c0-0.175,0.174-0.28,0.347-0.28h8.657
			c3.442,0,4.798,2.574,4.798,6.155V502.57z M233.207,500.972c0-1.705-1.182-2.469-2.885-2.503c-0.139,0-0.244-0.069-0.314-0.069
			h-1.46c-0.174,0-0.347,0.173-0.347,0.278v6.186c0,0.175,0.174,0.28,0.347,0.28h1.46c0.069,0,0.175,0,0.314,0
			c1.703-0.105,2.885-0.869,2.885-2.574V500.972z M233.207,511.713c0-1.739-1.182-2.572-2.885-2.642
			c-0.139,0-0.244-0.036-0.314-0.036h-1.46c-0.174,0-0.347,0.175-0.347,0.349v7.056c0,0.175,0.174,0.278,0.347,0.278h1.46v0.069
			c0.069,0,0.175-0.069,0.314-0.069c1.703-0.103,2.885-0.939,2.885-2.711V511.713z" style="opacity: 1;"></path>
		<path class="st6" d="M244.094,498.573c-0.174,0-0.278,0.105-0.278,0.278v4.485c0,0.173,0.104,0.278,0.278,0.278h5.945
			c0.175,0,0.314,0.173,0.314,0.347v3.128c0,0.175-0.139,0.28-0.314,0.28h-5.945c-0.174,0-0.278,0.173-0.278,0.381v8.691
			c0,0.105,0.104,0.278,0.278,0.278h5.702c0.139,0,0.313,0.105,0.313,0.278v3.199c0,0.173-0.174,0.278-0.313,0.278h-10.082
			c-0.174,0-0.313-0.105-0.313-0.278v-25.099c0-0.175,0.139-0.28,0.313-0.28h10.326c0.175,0,0.314,0.105,0.314,0.28v3.197
			c0,0.175-0.139,0.278-0.314,0.278H244.094z" style="opacity: 1;"></path>
		<path class="st6" d="M256.856,498.573c-0.174,0-0.278,0.105-0.278,0.278v4.485c0,0.173,0.104,0.278,0.278,0.278h5.945
			c0.174,0,0.314,0.173,0.314,0.347v3.128c0,0.175-0.14,0.28-0.314,0.28h-5.945c-0.174,0-0.278,0.173-0.278,0.381v8.691
			c0,0.105,0.104,0.278,0.278,0.278h5.702c0.139,0,0.313,0.105,0.313,0.278v3.199c0,0.173-0.174,0.278-0.313,0.278h-10.082
			c-0.174,0-0.313-0.105-0.313-0.278v-25.099c0-0.175,0.139-0.28,0.313-0.28h10.326c0.174,0,0.314,0.105,0.314,0.28v3.197
			c0,0.175-0.14,0.278-0.314,0.278H256.856z" style="opacity: 1;"></path>
		<path class="st6" d="M275.563,507.68l3.129,12.516c0.035,0.173-0.069,0.278-0.243,0.278h-3.754c-0.175,0-0.348-0.105-0.418-0.278l-3.06-12.238
			h-1.807v12.238c0,0.173-0.139,0.278-0.313,0.278h-3.825c-0.104,0-0.278-0.105-0.278-0.278v-25.099c0-0.175,0.174-0.28,0.278-0.28
			h8.692c3.407,0,4.832,2.713,4.832,6.466v0.208C278.796,504.553,277.788,506.916,275.563,507.68z M269.409,504.205h1.807
			c1.808,0,3.164-0.8,3.164-2.713v-0.208c0-1.876-1.356-2.781-3.164-2.781v0.069h-1.807V504.205z" style="opacity: 1;"></path>
	</g>
</g>
</svg>
